<svg xmlns="http://www.w3.org/2000/svg" width="20" height="15" viewBox="0 0 20 15">
  <g id="Polygon_1" data-name="Polygon 1" fill="none">
    <path d="M10,0l2.4,5.687,7.6.043L13.883,9.287,16.18,15,10,11.512,3.82,15l2.3-5.713L0,5.729l7.6-.043Z" stroke="none"/>
    <path d="M 10 2.571867942810059 L 8.264949798583984 6.683090209960938 L 3.673147201538086 6.708873748779297 L 7.367230415344238 8.857250213623047 L 5.811055183410645 12.72774219512939 L 10 10.36343955993652 L 14.18894481658936 12.72774219512939 L 12.63277053833008 8.857250213623047 L 16.32685279846191 6.708873748779297 L 11.73505020141602 6.683090209960938 L 10 2.571867942810059 M 10 0 L 12.39999961853027 5.686809539794922 L 20 5.729490280151367 L 13.88327980041504 9.286809921264648 L 16.18033981323242 15 L 10 11.5117301940918 L 3.819660186767578 15 L 6.116720199584961 9.286809921264648 L 0 5.729490280151367 L 7.600000381469727 5.686809539794922 L 10 0 Z" stroke="none" fill="#707070"/>
  </g>
</svg>
